<?xml version="1.0" encoding="UTF-8"?>
<svg xmlns="http://www.w3.org/2000/svg" viewBox="0 0 1500 1500">
  <defs>
    <style>
      .cls-1, .cls-2, .cls-3 {
        fill: #00a86b;
      }

      .cls-4 {
        fill: #fff;
      }

      .cls-2 {
        stroke: #00a86b;
        stroke-miterlimit: 10;
      }

      .cls-3 {
        font-family: Georgia-Bold, Georgia;
        font-size: 76.68px;
        font-weight: 700;
      }
    </style>
  </defs>
  <g id="logotipo_negativo" data-name="logotipo negativo">
    <rect id="back" class="cls-4" width="1500" height="1500"/>
  </g>
  <g id="Logo_2" data-name="Logo 2">
    <text class="cls-3" transform="translate(511.8 1133.65) scale(.94 1)"><tspan x="0" y="0">PROSPERO </tspan><tspan x="57.98" y="92.01">CAPITAL</tspan></text>
    <g>
      <path class="cls-1" d="M765.48,760.96c10.49-20.17,47.1-74.94,72.55-84.98,58.74-23.16,100.64,5.99,112.99,16.34-5.54-1.1-40.59-12.43-88.24.65-20.66,5.67-48.41,21.02-102.24,87.95,56.98,47.3,92.51,62.01,150.71,30.72,74.15-39.86,82.89-119.09,180.8-73.57-267.44-221.32-316.02-51.18-326.58,22.88Z"/>
      <path class="cls-1" d="M737.43,697.64c-10.49-20.16-45.13-80.01-79.76-91.51-43.69-14.51-92.44-5.83-104.79,4.51,5.54-1.1,61.73-2.37,84.63,6.11,63.04,23.37,80.42,76.12,98.36,91.42-56.96,47.28-115.38,54.51-155.42,36.73-76.92-34.16-78.12-125.08-176.02-79.57,267.37-221.27,322.45-41.74,333.01,32.31Z"/>
      <path class="cls-1" d="M744.04,559.34c1.71-19.57,5.35-48.43,36.92-82.5,15.49-16.72,46.58-34.91,97.18-41.86-4.79.95-49.73,23.5-83.93,53.41-17.09,14.95-37.34,37.19-48,76.59,61.12,18.92,94.36,18.92,130.48-25.31,46.01-56.34,30.4-144.47,120.02-118.51-217.88-63.1-268.71,75.56-252.66,138.18Z"/>
      <path class="cls-1" d="M726.73,711.16l7.68-3.84c7.71,4.26,11.36,14.33,11.36,14.33l-1.79,16.42s-4.05-23.31-17.25-26.91"/>
      <path class="cls-1" d="M771.58,781.02l-7.68-3.84c-7.71,4.26-11.36,14.33-11.36,14.33l1.79,16.42s4.05-23.31,17.25-26.92"/>
    </g>
    <path class="cls-1" d="M1108.28,663.85c0,9.75-.38,19.5-1.15,29.22-.38,4.77-.85,9.54-1.42,14.29-.14,1.14-.28,2.28-.42,3.42-.07.57-.15,1.14-.22,1.71.26-2.11-.05.32-.11.79-.33,2.32-.67,4.64-1.04,6.95-2.97,18.56-7.38,36.88-13.19,54.75-2.86,8.79-6.05,17.46-9.57,26-.21.51-.42,1.02-.64,1.54-.09.2-.17.41-.26.61-.48,1.15.58-1.35.09-.21-.46,1.07-.91,2.14-1.38,3.21-.91,2.08-1.83,4.15-2.78,6.21-1.93,4.22-3.94,8.39-6.03,12.53-8.22,16.27-17.67,31.92-28.23,46.77-2.66,3.75-5.4,7.43-8.2,11.08-.22.29-.69.88.34-.44-.2.26-.4.52-.6.78-.34.43-.67.86-1.01,1.29-.67.86-1.35,1.72-2.04,2.57-1.43,1.79-2.88,3.57-4.35,5.34-5.79,6.97-11.84,13.73-18.14,20.25-6.29,6.52-12.83,12.81-19.58,18.85-3.42,3.06-6.9,6.05-10.43,8.97-1.77,1.46-3.55,2.91-5.34,4.34-.85.68-1.71,1.36-2.57,2.03-.43.34-.86.67-1.29,1.01-.29.23-.89.67.44-.34-.31.23-.61.47-.91.7-14.49,11.1-29.82,21.11-45.81,29.91-8.02,4.41-16.2,8.53-24.53,12.32-2.06.94-4.14,1.86-6.22,2.76-.51.22-1.02.44-1.53.66-.25.11-.51.22-.76.33-.17.07-1.21.51-.2.09s-.04.01-.2.08c-.26.11-.51.21-.77.32-.56.23-1.13.47-1.69.7-4.32,1.77-8.67,3.46-13.05,5.06-17.51,6.4-35.52,11.44-53.81,15.07-4.69.93-9.4,1.77-14.12,2.51-2.26.36-4.52.69-6.79,1-.34.05-.68.09-1.02.14,1.73-.25.96-.13.57-.08-.57.07-1.14.15-1.71.22-1.25.16-2.51.31-3.76.46-9.55,1.12-19.15,1.86-28.75,2.22-19.39.74-38.83-.05-58.09-2.37-1.08-.13-2.17-.27-3.25-.41-.34-.04-.68-.09-1.02-.13-1-.13.5.07.57.08-.68-.1-1.36-.19-2.04-.28-2.38-.34-4.75-.69-7.12-1.08-4.66-.75-9.31-1.6-13.94-2.53-9.23-1.86-18.39-4.08-27.45-6.66-8.92-2.54-17.74-5.42-26.44-8.63-4.27-1.58-8.51-3.24-12.72-4.98-.51-.21-1.02-.42-1.54-.64-.37-.15-1.51-.65.21.09-.2-.09-.41-.17-.61-.26-1.12-.48-2.24-.96-3.36-1.45-2.13-.93-4.25-1.88-6.36-2.85-16.59-7.64-32.6-16.53-47.86-26.57-7.6-5-14.93-10.34-22.19-15.82,1.59,1.2.03.02-.34-.27-.43-.34-.86-.67-1.29-1.01-.95-.74-1.89-1.49-2.82-2.24-1.79-1.44-3.57-2.89-5.33-4.36-3.44-2.87-6.83-5.8-10.16-8.79-13.49-12.11-26.07-25.22-37.62-39.2-1.46-1.77-2.91-3.55-4.34-5.35-.68-.86-1.36-1.71-2.03-2.58-.34-.43-.67-.86-1.01-1.29,1.27,1.62-.18-.24-.46-.61-2.76-3.61-5.44-7.27-8.06-10.98-5.25-7.43-10.22-15.06-14.9-22.86-4.72-7.88-9.15-15.94-13.26-24.15-2.03-4.05-3.98-8.13-5.85-12.26-.96-2.12-1.9-4.24-2.82-6.37-.22-.51-.44-1.02-.65-1.53-.11-.25-.22-.51-.32-.76-.32-.75.61,1.46.15.36-.47-1.13-.94-2.25-1.4-3.38-7.01-17.19-12.7-34.92-16.99-52.98-2.18-9.17-4-18.42-5.45-27.73-.37-2.37-.72-4.75-1.04-7.13-.14-1,.07.5.08.57-.04-.34-.09-.68-.14-1.02-.07-.57-.15-1.14-.22-1.71-.16-1.25-.31-2.51-.45-3.76-.54-4.7-.99-9.41-1.35-14.13-1.47-19.33-1.42-38.77.16-58.09.39-4.83.88-9.65,1.47-14.45.14-1.14.28-2.28.43-3.42.03-.23.06-.45.09-.68-.24,1.92-.09.64-.03.23.09-.68.19-1.36.29-2.04.33-2.32.69-4.63,1.06-6.95,1.51-9.29,3.39-18.52,5.62-27.67,4.41-18.08,10.22-35.81,17.36-52.99.21-.51.43-1.02.64-1.53-.03.06-.6,1.41-.22.51.13-.31.26-.61.39-.92.46-1.07.92-2.14,1.39-3.2.91-2.08,1.84-4.14,2.79-6.2,1.94-4.21,3.96-8.38,6.07-12.51,4.14-8.14,8.59-16.12,13.33-23.92,4.72-7.77,9.74-15.37,15.03-22.77,1.34-1.87,2.69-3.73,4.06-5.57.65-.88,1.31-1.75,1.97-2.62.33-.44.66-.87.99-1.31.13-.17.27-.35.4-.52.13-.17.27-.35.4-.52-.57.74-.72.93-.44.57,2.79-3.58,5.62-7.12,8.53-10.6,11.62-13.91,24.28-26.95,37.83-38.99,3.43-3.05,6.92-6.03,10.46-8.95,1.77-1.46,3.56-2.9,5.36-4.33.81-.64,1.63-1.29,2.45-1.92.22-.17.43-.34.65-.5.93-.72-.95.72-.31.24.48-.36.95-.73,1.43-1.1,7.27-5.54,14.75-10.81,22.41-15.79,15.37-9.98,31.49-18.81,48.18-26.36,2.07-.94,4.14-1.85,6.23-2.75.51-.22,1.02-.44,1.53-.65.39-.16,1.24-.5-.36.15.21-.08.41-.17.61-.26,1.13-.47,2.25-.94,3.38-1.4,4.32-1.76,8.68-3.43,13.07-5.02,8.73-3.16,17.57-5.99,26.52-8.47,9.03-2.5,18.16-4.66,27.35-6.45,4.64-.91,9.29-1.72,13.96-2.45,2.32-.36,4.64-.68,6.96-1.01-2.04.29-.05,0,.45-.06.57-.07,1.14-.15,1.71-.22,1.25-.16,2.51-.31,3.77-.45,19.23-2.2,38.63-2.86,57.97-2.02,9.6.42,19.18,1.21,28.71,2.38,1.14.14,2.28.29,3.42.44,1.28.17-1.51-.21-.23-.03.23.03.45.06.68.09.68.09,1.36.19,2.04.29,2.37.34,4.75.71,7.11,1.1,4.66.77,9.3,1.62,13.92,2.57,18.31,3.75,36.32,8.91,53.83,15.44,4.27,1.59,8.5,3.26,12.71,5.01.42.18,2.25.96.41.17.51.22,1.02.43,1.53.65,1.12.48,2.24.96,3.35,1.46,2.13.94,4.24,1.89,6.35,2.87,8.3,3.85,16.46,8.01,24.44,12.47s15.74,9.19,23.34,14.22c3.79,2.51,7.53,5.09,11.23,7.74,1.82,1.31,3.63,2.63,5.43,3.97.88.65,1.75,1.31,2.62,1.97.44.33.87.66,1.3.99.26.2.52.4.78.6l-.7-.54c.17.13.35.27.52.4,14.32,11.12,27.81,23.3,40.33,36.41,6.26,6.56,12.27,13.35,18.03,20.35,1.46,1.77,2.9,3.56,4.32,5.36.68.86,1.35,1.72,2.02,2.58.11.14.79,1.02.13.17s.02.03.13.17c.4.52.8,1.04,1.19,1.56,2.71,3.57,5.36,7.2,7.94,10.87,10.52,14.96,19.91,30.72,28.06,47.09,2.04,4.1,4.01,8.25,5.89,12.42.96,2.12,1.89,4.25,2.81,6.38.22.51.43,1.02.65,1.53-.79-1.84,0-.01.17.41.47,1.13.93,2.26,1.39,3.39,3.47,8.57,6.61,17.27,9.41,26.08,5.68,17.87,9.97,36.18,12.81,54.71.17,1.13.34,2.26.5,3.39.08.57.16,1.13.24,1.7.07.48.33,2.52.06.45.3,2.28.59,4.56.85,6.84.52,4.59.96,9.19,1.31,13.79.71,9.32,1.06,18.66,1.06,28.01,0,3.14,2.76,6.15,6,6,3.25-.15,6-2.64,6-6,0-19.89-1.64-39.75-4.77-59.4-2.97-18.61-7.39-36.99-13.21-54.92-5.87-18.05-13.15-35.67-21.7-52.62-8.29-16.42-17.82-32.21-28.49-47.19-10.82-15.19-22.73-29.61-35.68-43.03-12.99-13.47-27.03-25.85-41.87-37.24-14.57-11.18-29.98-21.25-46.07-30.11-16.53-9.1-33.79-16.92-51.51-23.41-17.72-6.49-35.94-11.6-54.46-15.25-19.25-3.8-38.83-6.1-58.44-6.85-19.44-.74-38.95.05-58.27,2.39-19.35,2.34-38.51,6.09-57.27,11.42-18.28,5.2-36.12,11.87-53.39,19.79-16.7,7.67-32.81,16.6-48.16,26.7-15.67,10.31-30.6,21.83-44.56,34.37-13.57,12.18-26.22,25.38-37.82,39.45-11.93,14.46-22.82,29.77-32.46,45.84-9.72,16.21-18.1,33.17-25.25,50.66s-12.79,35.12-17.11,53.29c-4.53,19.08-7.52,38.55-9.01,58.1-1.48,19.44-1.41,39,.19,58.44,1.61,19.41,4.68,38.73,9.29,57.65,4.44,18.24,10.31,36.13,17.53,53.47,7.24,17.39,15.69,34.23,25.47,50.34s20.64,31.18,32.61,45.52c11.75,14.09,24.56,27.29,38.28,39.46,13.96,12.38,28.86,23.75,44.5,33.92,15.45,10.05,31.67,18.93,48.47,26.52,17.38,7.85,35.32,14.44,53.69,19.54,18.69,5.19,37.78,8.8,57.05,11.02,19.4,2.24,38.98,2.91,58.48,2.05,19.64-.87,39.24-3.29,58.5-7.22,18.36-3.75,36.44-8.93,54-15.48,17.78-6.63,35.09-14.58,51.65-23.84,16.34-9.14,31.9-19.56,46.69-31.03,14.42-11.17,28-23.42,40.59-36.62,12.95-13.57,24.86-28.14,35.65-43.49,10.55-15.01,19.96-30.81,28.13-47.24,8.46-17,15.64-34.67,21.4-52.77,5.74-18.03,10.06-36.51,12.92-55.21,2.88-18.88,4.4-37.93,4.41-57.03,0-3.14-2.76-6.15-6-6s-6,2.64-6,6Z"/>
    <path class="cls-2" d="M742.27,963.07c2.59,75.12-62.15,58.24-62.15,58.24l62.22,1.62-.08-59.86Z"/>
    <path class="cls-2" d="M757.73,963.07c-2.59,75.12,62.15,58.24,62.15,58.24l-62.22,1.62.08-59.86Z"/>
    <rect class="cls-2" x="742.35" y="586.87" width="15.3" height="436.06"/>
    <path class="cls-1" d="M763.81,556.15c-5.66,6.24-5.3,26.55-5.75,32.22-.05.68-.4.61-.97.63l-14.45-.25c-.58.02-.84.87-.84-1.31.01-5.68,4.08-30.87,16.74-49.01,1.17-1.68-3.23,10.31-3.07,10.25l.92,5.57c.77-.32,14.46-5.86,7.42,1.91Z"/>
  </g>
</svg>