<?xml version="1.0" encoding="UTF-8"?>
<svg xmlns="http://www.w3.org/2000/svg" viewBox="0 0 1500 1500">
  <defs>
    <style>
      .cls-1 {
        font-family: Georgia-Bold, Georgia;
        font-size: 120px;
        font-weight: 700;
      }

      .cls-1, .cls-2, .cls-3 {
        fill: #00a86b;
      }

      .cls-4 {
        fill: #fff;
      }

      .cls-3 {
        stroke: #00a86b;
        stroke-miterlimit: 10;
      }
    </style>
  </defs>
  <g id="logotipo_negativo" data-name="logotipo negativo">
    <rect class="cls-4" width="1500" height="1500"/>
  </g>
  <g id="Logo_2" data-name="Logo 2">
    <g>
      <path class="cls-3" d="M391.15,825.05c-1.18,13.49-5.22,17.19-16.68,25.29h16.71s-.03-25.29-.03-25.29Z"/>
      <path class="cls-2" d="M397.72,740.01c4.43-8.52,19.9-31.66,30.65-35.9,24.82-9.79,42.52,2.53,47.74,6.9-2.34-.47-17.15-5.25-37.28.28-8.58,2.35-20.05,8.66-42.04,35.73-1.5.91-2.62,2.34-3.37,3.56v-83.78c.13-.01.23-.07.22-.24-.09-1.36.1-4.69.75-7.78,22.32,6.23,35.4,4.93,49.52-12.35,19.44-23.8,12.84-61.04,50.71-50.07-92.06-26.66-113.54,31.93-106.75,58.38.72-8.27,2.26-20.46,15.6-34.86,6.54-7.06,19.68-14.75,41.06-17.69-2.02.4-21.01,9.93-35.46,22.57-7.22,6.31-15.76,15.7-20.27,32.32-1.39,4.11-2,7.59-2.05,8.84-.04.92.09.57.34.57l2.69.14h-2.82v55.26c-.65-1.09-1.61-2.38-2.92-3.27,0,0,0,0,.01,0-7.09-6.04-13.95-26.88-38.86-36.12-9.04-3.35-31.24-2.85-33.43-2.41,4.88-4.09,24.14-7.51,41.4-1.78,13.68,4.54,27.37,28.19,31.51,36.15-4.17-29.25-25.93-100.18-131.56-12.76,38.67-17.98,39.15,17.94,69.54,31.44,15.3,6.79,37.39,4.35,59.19-12.73,3.03,1.84,4.54,6.41,5.12,8.69v121.79h6.46v-92.8c.59-2.18,1.86-5.83,4.17-8,22.94,18.7,37.8,24.22,61.72,11.37,31.33-16.84,35.02-50.32,76.39-31.09-113-93.51-133.52-21.62-137.99,9.67Z"/>
      <path class="cls-3" d="M389.31,825.05c1.18,13.49,5.22,17.19,16.68,25.29h-16.71s.03-25.29.03-25.29Z"/>
    </g>
    <text class="cls-1" transform="translate(558.02 746.43) scale(.94 1)"><tspan x="0" y="0">PROSPERO </tspan><tspan x="0" y="105">CAPITAL</tspan></text>
  </g>
</svg>